<svg width="40" height="40" viewBox="0 0 40 40" fill="none" xmlns="http://www.w3.org/2000/svg">
<circle cx="20" cy="20" r="19.5" fill="#1A1A1A" stroke="#FFC94A"/>
<path d="M29.9879 26.2306L29.4894 26.1926L29.4894 26.1927L29.4893 26.1934L29.4891 26.1964L29.4882 26.2083L29.4846 26.2545C29.4814 26.2948 29.4767 26.3532 29.4707 26.4254C29.4587 26.5697 29.4416 26.7687 29.4211 26.9872C29.3888 27.332 29.3491 27.7126 29.3089 28.0045C29.2031 28.0637 29.054 28.1439 28.8632 28.2387C28.4325 28.4527 27.7898 28.741 26.954 29.0301C25.2826 29.6083 22.8405 30.1897 19.7767 30.1898C16.7125 30.1874 14.2701 29.6059 12.5985 29.0282C11.7627 28.7393 11.1199 28.4515 10.6892 28.2379C10.4986 28.1433 10.3495 28.0633 10.2438 28.0042C10.2036 27.7124 10.1639 27.3319 10.1316 26.9872C10.1111 26.7687 10.094 26.5697 10.082 26.4254C10.076 26.3532 10.0713 26.2948 10.0681 26.2545L10.0645 26.2083L10.0636 26.1964L10.0634 26.1939C9.95599 24.6685 10.7152 23.5264 11.9183 22.6641C13.0213 21.8735 14.4628 21.3494 15.8211 21.0409L17.881 26.6677C17.9557 26.8719 18.1537 27.0043 18.3709 26.9954C18.5881 26.9866 18.7747 26.8384 18.8325 26.6289L19.691 23.5191C19.7369 23.353 19.6939 23.1749 19.5773 23.0479C19.0019 22.4213 18.8155 22.0482 18.7769 21.8616C18.7684 21.8205 18.7689 21.7973 18.7702 21.7869C18.7748 21.7827 18.7841 21.7756 18.801 21.7664C18.9004 21.7121 19.0861 21.6781 19.3134 21.673C19.4753 21.6693 19.581 21.6781 19.664 21.6851C19.7008 21.6882 19.7331 21.6909 19.7639 21.6919C19.7755 21.6923 19.7871 21.6923 19.7988 21.6919C19.8296 21.6909 19.8619 21.6882 19.8987 21.6851C19.9817 21.6781 20.0874 21.6693 20.2491 21.673C20.4764 21.6781 20.6614 21.7121 20.7598 21.7661C20.7755 21.7747 20.7845 21.7814 20.7891 21.7854C20.7903 21.7961 20.7905 21.8192 20.782 21.8596C20.7424 22.0467 20.5541 22.4204 19.9761 23.0471C19.859 23.1741 19.8157 23.3526 19.8617 23.5191L20.7202 26.6289C20.778 26.8385 20.9647 26.9867 21.1819 26.9955C21.3992 27.0042 21.5972 26.8716 21.6718 26.6674L23.6976 21.1211C24.0332 21.254 24.3791 21.3834 24.7216 21.5115C24.9899 21.6119 25.2561 21.7115 25.5139 21.8114C26.2803 22.1086 27.0011 22.4192 27.618 22.7993C28.2329 23.1782 28.7226 23.613 29.0468 24.1476C29.367 24.6754 29.5461 25.3333 29.489 26.1977L29.9879 26.2306ZM29.9879 26.2306C29.9879 26.2306 29.8775 27.6778 29.767 28.3155M29.9879 26.2306L29.767 28.3155M29.767 28.3155C29.767 28.3155 26.0318 30.6898 19.7763 30.6898C13.5208 30.6849 9.78562 28.3155 9.78562 28.3155H29.767ZM18.7716 21.7801C18.7717 21.7801 18.7715 21.781 18.7708 21.7827C18.7712 21.7808 18.7715 21.78 18.7716 21.7801ZM18.7671 21.7898C18.7666 21.7906 18.7662 21.791 18.7662 21.791L18.7671 21.7898ZM20.7935 21.7898C20.7935 21.7898 20.7932 21.7895 20.7926 21.7887L20.7935 21.7898ZM20.7884 21.7806C20.7878 21.779 20.7876 21.7781 20.7877 21.778C20.7878 21.778 20.7881 21.7788 20.7884 21.7806Z" stroke="#FFC94A" stroke-linejoin="round"/>
<circle cx="19.7829" cy="14.6143" r="4.61405" stroke="#FFC94A"/>
</svg>
